<svg width="67" height="65" viewBox="0 0 67 65" fill="none" xmlns="http://www.w3.org/2000/svg">
<g clip-path="url(#clip0_1011_332)">
<path fill-rule="evenodd" clip-rule="evenodd" d="M49.5523 3.22404C51.1893 4.33388 52.7102 5.60909 54.0928 7.0264C59.368 12.4298 62.6296 19.8949 62.6296 28.1391C62.6296 36.3832 59.3667 43.8483 54.0928 49.2517C48.8165 54.6563 41.5279 57.9993 33.4776 57.9993C25.4272 57.9993 18.1386 54.6563 12.8623 49.2517C7.58715 43.8471 4.32554 36.3832 4.32554 28.1391C4.32554 19.8949 7.58715 12.4286 12.8623 7.02517C14.2622 5.59071 15.8029 4.30203 17.4633 3.18239V3.64176C15.9066 4.7124 14.456 5.93494 13.1351 7.28855C7.92788 12.6234 4.70701 19.9953 4.70701 28.1378C4.70701 36.2803 7.92788 43.6523 13.1351 48.9871C18.3411 54.3207 25.5334 57.6208 33.4776 57.6208C41.4217 57.6208 48.614 54.3219 53.82 48.9871C59.0272 43.6523 62.2481 36.2815 62.2481 28.1378C62.2481 19.9941 59.0272 12.6234 53.82 7.28855C52.5151 5.95209 51.0868 4.74302 49.5523 3.68218V3.22281V3.22404ZM25.868 64.3031C26.9062 64.2517 31.4813 63.7445 31.0962 58.8189C31.0962 58.8189 25.5766 58.5984 25.6593 64.1965C26.2729 63.1982 27.0482 62.3003 27.9123 61.4562C28.8234 60.5657 29.8394 59.7315 30.8665 58.8997L31.0147 59.0798C29.995 59.9054 28.9876 60.7335 28.0778 61.6216C27.2296 62.4497 26.4692 63.328 25.8692 64.3019L25.868 64.3031ZM28.7876 50.1913C28.8987 51.3268 29.195 52.4477 29.5938 53.56C30.0209 54.7531 30.5629 55.9352 31.1159 57.1198L30.9036 57.2178C30.3456 56.0247 29.7999 54.834 29.3728 53.6384C28.9666 52.504 28.6642 51.3611 28.553 50.1962C26.0136 55.1966 31.0764 57.3905 31.0764 57.3905C33.5911 53.1263 29.6999 50.6874 28.7888 50.1913H28.7876ZM21.5212 1.32776C20.8484 1.65116 20.1855 1.98068 19.562 2.35185C19.088 2.63482 18.6386 2.93984 18.2275 3.28284V3.30121C21.3348 3.88921 21.5126 1.50906 21.5212 1.32776ZM18.2448 3.07214C18.325 2.49272 18.7719 1.02886 21.2632 1.28489C20.6509 1.58133 20.0497 1.88635 19.4842 2.222C19.0472 2.4817 18.6312 2.76222 18.2448 3.07214ZM18.4868 -0.00012586C18.104 0.640542 17.7139 1.27141 17.2856 1.85818C16.9609 2.3053 16.614 2.72547 16.2337 3.10399H16.2152C15.8881 -0.0319755 18.304 -0.00625079 18.4868 -0.00012586ZM16.4473 3.10522C16.793 2.74874 17.1115 2.3592 17.4102 1.9476C17.7979 1.41351 18.1571 0.84389 18.5077 0.260796C18.5534 2.75609 17.0387 3.07582 16.4461 3.10522H16.4473ZM18.3744 5.13134C17.7016 5.45474 17.0387 5.78549 16.4152 6.15666C15.9412 6.43963 15.4918 6.74465 15.0807 7.08765V7.10602C18.188 7.69402 18.3658 5.31387 18.3744 5.13257V5.13134ZM15.098 6.87695C15.4844 6.5658 15.9004 6.28651 16.3374 6.02681C16.9029 5.68994 17.5041 5.38492 18.1164 5.08847C15.6264 4.83245 15.1782 6.29753 15.098 6.87695ZM15.314 1.66463C15.1313 1.68913 12.7475 2.07745 13.6153 5.11052H13.6338C13.9437 4.67075 14.2116 4.19668 14.4536 3.70178C14.7721 3.04887 15.0474 2.36287 15.3128 1.66586L15.314 1.66463ZM13.8437 5.07255C14.4215 4.9427 15.8585 4.36818 15.3795 1.9182C15.135 2.55275 14.8807 3.17627 14.5918 3.76793C14.3684 4.22485 14.1227 4.6634 13.8437 5.07377V5.07255ZM12.4203 3.22526C12.2228 3.29264 9.64757 4.23833 11.2784 7.43432L11.2994 7.42819C11.5487 6.87205 11.7438 6.28651 11.9067 5.68136C12.1203 4.88512 12.2759 4.05948 12.4203 3.22526ZM11.5253 7.34367C12.1413 7.07417 13.619 6.12358 12.5487 3.49354C12.4141 4.25303 12.2672 5.00395 12.0746 5.72669C11.9253 6.28406 11.7475 6.8255 11.5253 7.34367ZM15.3856 8.07989C14.5795 8.46698 13.7857 8.86388 13.0388 9.30733C12.4722 9.64542 11.9327 10.0105 11.4413 10.4221V10.4441C15.1622 11.1485 15.3758 8.29794 15.3869 8.07989H15.3856ZM11.4611 10.1709C11.924 9.79854 12.4228 9.46412 12.945 9.15175C13.6227 8.74873 14.3425 8.38369 15.0758 8.02844C12.0932 7.72219 11.5574 9.47637 11.4611 10.1697V10.1709ZM9.84509 6.18361C9.63769 6.25343 6.9452 7.24322 8.65131 10.585L8.67353 10.5789C8.93402 9.99822 9.13771 9.38572 9.30808 8.75241C9.53152 7.92064 9.69448 7.0558 9.84509 6.18361ZM8.91056 10.4894C9.55375 10.2077 11.0994 9.213 9.98089 6.46413C9.84015 7.25792 9.68707 8.04314 9.48461 8.79896C9.32783 9.38205 9.14265 9.94799 8.91056 10.4907V10.4894ZM12.4857 11.6985C11.7475 12.202 11.0216 12.7116 10.3512 13.2616C9.84139 13.6805 9.36486 14.1227 8.94019 14.6017L8.94389 14.6238C12.7289 14.7646 12.5092 11.9141 12.4857 11.6973V11.6985ZM8.9229 14.3506C9.32289 13.9145 9.76608 13.5078 10.2352 13.1219C10.8438 12.6221 11.5006 12.1542 12.1709 11.6936C9.17598 11.8357 8.91179 13.6499 8.92167 14.3506H8.9229ZM6.61558 9.00353C6.423 9.14195 3.93914 11.0186 6.78101 13.9562L6.80076 13.9427C6.88594 13.2567 6.90199 12.5548 6.8773 11.8443C6.84397 10.9096 6.73657 9.95902 6.61558 9.00353ZM7.01927 13.7761C7.59826 13.28 8.8871 11.761 6.8452 9.2522C6.95261 10.1232 7.04396 10.988 7.07482 11.8357C7.09952 12.4911 7.08717 13.1391 7.01927 13.7749V13.7761ZM4.29962 13.2751C4.11938 13.4429 1.79601 15.7189 5.13909 18.3882L5.15885 18.371C5.15514 17.6483 5.07737 16.9182 4.95515 16.1844C4.79343 15.2191 4.55516 14.2489 4.30085 13.2738L4.29962 13.2751ZM5.36131 18.1701C5.89462 17.5784 7.02668 15.8328 4.57121 13.5029C4.7996 14.391 5.0107 15.2755 5.15761 16.1513C5.27119 16.8275 5.34526 17.5013 5.36131 18.1701ZM10.4315 15.6295C9.65374 16.3547 8.89204 17.086 8.20194 17.8553C7.67851 18.4408 7.19704 19.046 6.78348 19.6879L6.79088 19.7124C11.2759 19.1979 10.4957 15.8794 10.4303 15.6283L10.4315 15.6295ZM6.71681 19.3951C7.10939 18.8083 7.55629 18.251 8.03899 17.712C8.66489 17.0137 9.35252 16.3436 10.0599 15.6809C6.55756 16.3865 6.57731 18.5719 6.71681 19.3951ZM2.39845 17.1166C2.79227 18.1897 3.1688 19.2603 3.45644 20.3334C3.67495 21.1493 3.84161 21.9651 3.92556 22.781L3.90581 22.8006C-0.161946 20.1448 2.21328 17.3249 2.39969 17.1154L2.39845 17.1166ZM4.13296 22.5311C4.67121 21.8059 5.75882 19.7111 2.73054 17.3445C3.08608 18.3232 3.42187 19.2995 3.68236 20.2734C3.88358 21.0256 4.0416 21.7777 4.13296 22.5311ZM9.27598 20.1913C8.54884 21.077 7.84023 21.9676 7.21433 22.8875C6.73903 23.5882 6.31189 24.3036 5.96252 25.0484L5.97487 25.0741C10.6957 23.8871 9.38215 20.451 9.27598 20.1913ZM5.84894 24.7434C6.1835 24.0598 6.58102 23.4008 7.01927 22.7565C7.58715 21.921 8.22663 21.1076 8.88587 20.2991C5.24403 21.5511 5.57982 23.8834 5.84894 24.7446V24.7434ZM0.959 22.3449C0.81703 22.5862 -0.964385 25.8079 3.54286 27.6356L3.5589 27.6111C3.31817 26.8271 2.99473 26.0578 2.6219 25.2995C2.13056 24.3024 1.55404 23.3224 0.959 22.3449ZM3.71445 27.3257C4.10086 26.511 4.76133 24.2473 1.32936 22.5053C1.86884 23.3971 2.38734 24.2901 2.83301 25.1966C3.17744 25.8961 3.47866 26.6041 3.71445 27.3257ZM8.85007 25.1256C8.12293 26.0112 7.41432 26.9018 6.78842 27.8218C6.31312 28.5225 5.88598 29.2391 5.53661 29.9827L5.54895 30.0084C10.2685 28.8214 8.95624 25.3853 8.85007 25.1256ZM5.42303 29.6776C5.75759 28.9953 6.15511 28.335 6.59459 27.6907C7.16248 26.8553 7.80072 26.0419 8.46119 25.2334C4.81935 26.4853 5.15514 28.8177 5.42427 29.6776H5.42303ZM0.1973 27.4959C0.959 28.3534 1.70095 29.2146 2.36265 30.1113C2.8651 30.7924 3.31941 31.4918 3.69717 32.2219L3.68606 32.2489C-1.07796 31.2419 0.101007 27.7581 0.1973 27.4959ZM3.7984 31.9132C3.43792 31.2432 3.01448 30.6 2.55153 29.9729C1.95156 29.1595 1.28121 28.3718 0.591113 27.5878C4.27863 28.7001 4.0342 31.0435 3.7984 31.9145V31.9132ZM9.4698 29.6972C8.74266 30.5829 8.03405 31.4735 7.40815 32.3934C6.93285 33.0929 6.50571 33.8095 6.15634 34.5531L6.16869 34.5788C10.8883 33.3918 9.57597 29.9557 9.4698 29.6972ZM6.04276 34.2493C6.37732 33.567 6.77484 32.9067 7.21433 32.2624C7.78221 31.4269 8.42169 30.6135 9.08092 29.805C5.43908 31.057 5.77487 33.3893 6.04276 34.2505V34.2493ZM0.0713788 32.8185C0.0454538 33.0978 -0.200217 36.7642 4.6638 36.5327L4.66751 36.5045C4.11567 35.8932 3.49594 35.3322 2.83547 34.8005C1.96637 34.1011 1.0269 33.4555 0.0713788 32.8185ZM4.68726 36.1811C4.69096 35.2795 4.32678 32.952 0.475068 32.8087C1.34417 33.3918 2.19352 33.9847 2.98238 34.6192C3.59224 35.1092 4.16506 35.6249 4.68602 36.1811H4.68726ZM10.0994 34.5298C9.63399 35.4314 9.31548 36.4089 9.07598 37.4294C8.8192 38.5233 8.65378 39.6637 8.49576 40.8128L8.28959 40.7846C8.44885 39.6282 8.61551 38.4804 8.87229 37.384C9.11672 36.344 9.44264 35.3456 9.9204 34.4232C5.61192 36.9528 8.33404 40.9965 8.33404 40.9965C12.2697 39.0059 10.5389 35.3359 10.0982 34.531L10.0994 34.5298ZM1.25158 42.649C1.8244 43.3669 4.54776 46.3865 7.93652 43.5739C7.93652 43.5739 5.25514 39.5033 1.22072 42.4445C2.26389 42.3697 3.31694 42.4641 4.37616 42.649C5.4934 42.8438 6.62299 43.1415 7.75752 43.4502L7.7032 43.6486C6.57731 43.3424 5.45513 43.0459 4.33912 42.8524C3.29966 42.6711 2.26883 42.578 1.25035 42.649H1.25158ZM3.50088 47.6862C4.21197 48.306 7.52419 50.8515 10.4191 47.3909C10.4191 47.3909 6.95384 43.7748 3.43175 47.4853C4.46998 47.2182 5.55019 47.119 6.65509 47.1116C7.81924 47.1031 9.01549 47.1962 10.2179 47.2991L10.1994 47.5098C9.00562 47.4081 7.81801 47.3162 6.65632 47.3236C5.57241 47.3309 4.51566 47.4277 3.50088 47.6862ZM11.6191 39.0855C11.408 40.1684 11.3734 41.2881 11.4352 42.4273C11.5018 43.6498 11.6759 44.8932 11.8623 46.1427L11.6389 46.1758C11.4512 44.9177 11.2759 43.6658 11.2092 42.4408C11.1463 41.2795 11.1821 40.1366 11.4006 39.0267C7.66493 42.97 11.75 46.3828 11.75 46.3828C15.2609 43.1157 12.3277 39.796 11.6203 39.0868L11.6191 39.0855ZM6.44275 52.1169C7.28469 52.6645 11.1537 54.8572 13.6845 50.7866C13.6845 50.7866 9.49325 47.4902 6.34028 51.916C7.39333 51.4812 8.51675 51.2178 9.67843 51.0475C10.9031 50.8675 12.1759 50.7891 13.4573 50.7192L13.4697 50.9434C12.1969 51.012 10.9327 51.0904 9.71053 51.2705C8.57107 51.4383 7.47111 51.6955 6.44275 52.1182V52.1169ZM10.1105 56.1864C11.071 56.5833 15.4202 58.0765 17.2066 53.4657C17.2066 53.4657 12.3191 50.9116 9.96731 56.0002C10.9537 55.3607 12.0425 54.8805 13.1894 54.4873C14.398 54.0732 15.6757 53.7523 16.9634 53.4399L17.0189 53.6653C15.7412 53.9753 14.4721 54.2938 13.266 54.7078C12.1413 55.0937 11.0747 55.5628 10.1105 56.1851V56.1864ZM14.8079 43.5714C14.7585 44.6727 14.8881 45.785 15.1165 46.9046C15.3622 48.1051 15.7177 49.3093 16.0856 50.5183L15.8683 50.5833C15.498 49.3656 15.14 48.1529 14.8943 46.95C14.661 45.8095 14.5289 44.6739 14.582 43.5445C11.466 47.9863 16.0091 50.7707 16.0091 50.7707C19.0015 47.0296 15.6115 44.1705 14.8066 43.5714H14.8079ZM15.0708 59.544C16.0733 59.8197 20.5756 60.7678 21.7731 55.972C21.7731 55.972 16.6041 54.039 14.9066 59.3774C15.8054 58.6204 16.8263 58.0116 17.9152 57.4799C19.062 56.9201 20.2904 56.4448 21.5298 55.9769L21.6126 56.1937C20.383 56.6592 19.1633 57.1308 18.0176 57.6894C16.9498 58.21 15.9498 58.8078 15.0721 59.544H15.0708ZM18.7003 47.2329C18.8855 48.3587 19.2559 49.4575 19.7262 50.5416C20.2311 51.7054 20.8496 52.8495 21.4792 53.9961L21.2743 54.1076C20.6385 52.9536 20.0163 51.7997 19.5102 50.6347C19.0299 49.5298 18.6534 48.4077 18.4658 47.2537C16.2609 52.4073 21.457 54.2692 21.457 54.2692C23.6853 49.8519 19.6423 47.6702 18.6991 47.2341L18.7003 47.2329ZM20.3595 61.972C21.3928 62.0847 25.9902 62.3088 26.4025 57.3856C26.4025 57.3856 20.9891 56.2954 20.1706 61.8348C20.936 60.9454 21.8459 60.1823 22.836 59.4852C23.8791 58.7503 25.0149 58.0875 26.163 57.4297L26.2803 57.6306C25.1408 58.2835 24.0137 58.9426 22.9718 59.6763C22.0014 60.3599 21.1101 61.1071 20.3608 61.9732L20.3595 61.972ZM23.4915 49.5579C23.7421 50.6727 24.1742 51.747 24.7075 52.8029C25.2791 53.9361 25.963 55.0434 26.6593 56.1521L26.4605 56.2746C25.7593 55.1586 25.0705 54.0426 24.4989 52.9083C23.9557 51.8315 23.515 50.7339 23.2606 49.591C21.3582 54.8621 26.6531 56.424 26.6531 56.424C28.6222 51.8866 24.4594 49.9401 23.4927 49.5567L23.4915 49.5579ZM0.505931 37.5506C0.54667 37.8275 1.1701 41.4498 5.84524 40.0986L5.84277 40.0704C5.16255 39.6049 4.42801 39.2019 3.66014 38.8381C2.6503 38.3591 1.5849 37.9487 0.505931 37.5506ZM5.78598 39.7507C5.57858 38.8736 4.67615 36.6944 0.897274 37.4465C1.87872 37.8128 2.84535 38.1925 3.76137 38.6262C4.46875 38.9606 5.14897 39.3293 5.78598 39.7495V39.7507ZM41.1341 64.3019C40.0958 64.2504 35.5207 63.7433 35.9059 58.8176C35.9059 58.8176 41.4254 58.5971 41.3427 64.1953C40.7291 63.197 39.9539 62.299 39.0897 61.455C38.1786 60.5645 37.1626 59.7302 36.1367 58.8985L35.9886 59.0785C37.0083 59.9042 38.0157 60.7323 38.9255 61.6204C39.7736 62.4485 40.5341 63.3268 41.1341 64.3007V64.3019ZM38.2144 50.19C37.3033 50.6862 33.4109 53.1251 35.9256 57.3893C35.9256 57.3893 40.9872 55.1953 38.449 50.1949C38.3379 51.3587 38.0354 52.5028 37.6293 53.6372C37.2009 54.8327 36.6565 56.0234 36.0984 57.2166L35.8861 57.1186C36.4404 55.934 36.9811 54.7519 37.4083 53.5588C37.807 52.4465 38.1033 51.3268 38.2144 50.19ZM45.4796 1.32776C45.4882 1.50906 45.6672 3.88921 48.7733 3.30121V3.28284C48.3622 2.93984 47.9128 2.63482 47.4388 2.35185C46.8153 1.98068 46.1524 1.65116 45.4796 1.32776ZM48.756 3.07214C48.3696 2.76099 47.9536 2.4817 47.5165 2.222C46.9511 1.88513 46.3499 1.58011 45.7376 1.28489C48.2276 1.02886 48.6758 2.49272 48.756 3.07214ZM48.5128 -0.00012586C48.6967 -0.00747578 51.1127 -0.0332006 50.7843 3.10277H50.7658C50.3843 2.72547 50.0387 2.3053 49.7128 1.85818C49.2856 1.27019 48.8955 0.640542 48.5116 -0.00012586H48.5128ZM50.5522 3.10522C49.9609 3.07582 48.4461 2.75609 48.4918 0.260796C48.8437 0.84389 49.2017 1.41351 49.5893 1.9476C49.8881 2.3592 50.2066 2.74874 50.5522 3.10522ZM48.6251 5.13134C48.6338 5.31264 48.8128 7.69279 51.9188 7.1048V7.08642C51.5078 6.74343 51.0584 6.43841 50.5843 6.15543C49.9609 5.78426 49.298 5.45352 48.6251 5.13012V5.13134ZM51.9016 6.87695C51.8213 6.29753 51.3744 4.83367 48.8844 5.08847C49.4967 5.38492 50.0967 5.68994 50.6633 6.02681C51.1004 6.28651 51.5164 6.5658 51.9028 6.87695H51.9016ZM51.6855 1.66463C51.9522 2.36165 52.2262 3.04887 52.546 3.70056C52.7892 4.19545 53.0571 4.66952 53.3657 5.10807H53.3842C54.2521 2.07745 51.8682 1.68913 51.6855 1.66463ZM53.1558 5.07255C52.8768 4.66217 52.6312 4.22363 52.4077 3.76671C52.1176 3.17504 51.8645 2.55152 51.6189 1.91698C51.1399 4.36695 52.5781 4.94147 53.1546 5.07132L53.1558 5.07255ZM54.5805 3.22526C54.7249 4.05948 54.8817 4.88635 55.094 5.68136C55.257 6.28651 55.4521 6.87205 55.7014 7.42819L55.7224 7.43432C57.3532 4.23833 54.778 3.29264 54.5805 3.22526ZM55.4755 7.34367C55.2545 6.8255 55.0755 6.28406 54.9262 5.72669C54.7323 5.00395 54.5854 4.25425 54.4509 3.49354C53.3818 6.12358 54.8595 7.07417 55.4743 7.34367H55.4755ZM51.6152 8.07989C51.6263 8.29794 51.8398 11.1485 55.5607 10.4441V10.4221C55.0681 10.0105 54.5299 9.64542 53.962 9.30733C53.2151 8.86265 52.4213 8.46698 51.6152 8.07989ZM55.5397 10.1709C55.4446 9.47637 54.9076 7.72342 51.925 8.02966C52.6583 8.38491 53.3781 8.74996 54.0558 9.15298C54.5792 9.46412 55.078 9.79977 55.5397 10.1722V10.1709ZM57.1569 6.18361C57.3088 7.0558 57.4717 7.92064 57.6939 8.75241C57.8643 9.3845 58.068 9.99699 58.3285 10.5789L58.3495 10.585C60.0544 7.24322 57.3631 6.25343 57.1557 6.18361H57.1569ZM58.0915 10.4894C57.8606 9.94799 57.6742 9.38082 57.5174 8.79773C57.3149 8.04314 57.1606 7.25792 57.0211 6.4629C55.9027 9.213 57.4483 10.2065 58.0915 10.4882V10.4894ZM54.5163 11.6985C54.4941 11.9153 54.2731 14.7646 58.0581 14.625L58.0618 14.6029C57.6372 14.124 57.1606 13.6818 56.6508 13.2628C55.9804 12.7128 55.2545 12.202 54.5163 11.6997V11.6985ZM58.0791 14.3506C58.0902 13.6499 57.8248 11.8357 54.8299 11.6936C55.5014 12.1542 56.157 12.6221 56.7656 13.1219C57.2359 13.5078 57.6779 13.9133 58.0791 14.3506ZM60.3864 9.00353C60.2642 9.95902 60.1581 10.9096 60.1235 11.8443C60.0976 12.556 60.1148 13.2567 60.2 13.9427L60.221 13.9562C63.0629 11.0174 60.579 9.14073 60.3864 9.00353ZM59.9828 13.7761C59.9149 13.1391 59.9025 12.4923 59.9272 11.8369C59.9581 10.988 60.0494 10.1232 60.1568 9.25343C58.1149 11.761 59.4038 13.28 59.9828 13.7773V13.7761ZM62.7024 13.2751C62.4481 14.2489 62.2086 15.2203 62.0481 16.1856C61.9259 16.9194 61.8481 17.6495 61.8444 18.3722L61.8642 18.3894C65.2073 15.7189 62.8839 13.4441 62.7036 13.2763L62.7024 13.2751ZM61.6407 18.1701C61.6568 17.5013 61.7308 16.8275 61.8444 16.1513C61.9913 15.2755 62.2024 14.391 62.4308 13.5029C59.9753 15.8328 61.1074 17.5784 61.6407 18.1701ZM56.5705 15.6295C56.5051 15.8806 55.7249 19.1991 60.2099 19.7136L60.2173 19.6891C59.805 19.0472 59.3235 18.4421 58.7988 17.8565C58.1087 17.0872 57.3483 16.3559 56.5693 15.6307L56.5705 15.6295ZM60.2852 19.3951C60.4259 18.5719 60.4445 16.3865 56.9421 15.6809C57.6483 16.3436 58.3359 17.0137 58.9618 17.712C59.4457 18.2497 59.8926 18.8083 60.284 19.3951H60.2852ZM64.6036 17.1166C64.79 17.3273 67.1652 20.146 63.0975 22.8018L63.0777 22.7822C63.1616 21.9663 63.3283 21.1505 63.5468 20.3347C63.8345 19.2616 64.211 18.1909 64.6048 17.1178L64.6036 17.1166ZM62.8691 22.5311C62.9604 21.7777 63.1172 21.0243 63.3197 20.2734C63.5814 19.2995 63.9159 18.3232 64.2715 17.3445C61.2432 19.7111 62.3308 21.8059 62.8691 22.5311ZM57.726 20.1913C57.6199 20.4498 56.3063 23.8871 61.0259 25.0741L61.0383 25.0484C60.6901 24.3048 60.263 23.5882 59.7865 22.8875C59.1606 21.9676 58.4519 21.0782 57.7248 20.1913H57.726ZM61.1531 24.7434C61.4222 23.8834 61.758 21.5498 58.1162 20.2979C58.7754 21.1064 59.4136 21.921 59.9828 22.7552C60.421 23.3996 60.8185 24.0598 61.1531 24.7422V24.7434ZM66.043 22.3449C65.448 23.3224 64.8702 24.3012 64.3789 25.2995C64.0061 26.059 63.6838 26.8271 63.4431 27.6111L63.4592 27.6356C67.9664 25.8079 66.185 22.5874 66.043 22.3449ZM63.2876 27.3257C63.5234 26.6029 63.8246 25.8949 64.169 25.1966C64.6147 24.2914 65.1332 23.3971 65.6727 22.5053C62.2407 24.2473 62.9012 26.511 63.2876 27.3257ZM58.152 25.1256C58.0458 25.3841 56.7323 28.8201 61.4531 30.0084L61.4654 29.9827C61.1173 29.2391 60.6901 28.5225 60.2136 27.8218C59.5877 26.9018 58.8791 26.0125 58.152 25.1256ZM61.579 29.6776C61.8481 28.8177 62.1839 26.4841 58.5408 25.2334C59.2001 26.0419 59.8396 26.8565 60.4074 27.6907C60.8457 28.335 61.2432 28.9953 61.5778 29.6776H61.579ZM66.8047 27.4959C66.901 27.7581 68.08 31.2419 63.3172 32.2489L63.3061 32.2219C63.6838 31.4918 64.1382 30.7924 64.6406 30.1113C65.3023 29.2158 66.0443 28.3534 66.8047 27.4959ZM63.2049 31.9132C62.9691 31.0435 62.7234 28.7001 66.4121 27.5866C65.7221 28.3706 65.0517 29.1582 64.4517 29.9716C63.9875 30.5988 63.5653 31.2432 63.2049 31.912V31.9132ZM57.5335 29.6972C57.4273 29.9557 56.1138 33.3918 60.8333 34.5788L60.8457 34.5531C60.4975 33.8095 60.0704 33.0929 59.5951 32.3934C58.9692 31.4735 58.2606 30.5829 57.5335 29.6972ZM60.9605 34.2493C61.2296 33.3893 61.5654 31.0557 57.9236 29.8038C58.5828 30.6123 59.2223 31.4257 59.7902 32.2611C60.2284 32.9055 60.6259 33.5657 60.9605 34.2481V34.2493ZM66.9319 32.8185C65.9764 33.4555 65.0369 34.1011 64.1678 34.8005C63.5073 35.3322 62.8876 35.8932 62.3358 36.5045L62.3395 36.5327C67.2035 36.763 66.9578 33.0966 66.9319 32.8185ZM62.316 36.1811C62.837 35.6237 63.411 35.1092 64.0196 34.6192C64.8085 33.9847 65.6591 33.3918 66.527 32.8087C62.6752 32.952 62.3111 35.2807 62.3148 36.1811H62.316ZM56.9051 34.5298C56.4644 35.3346 54.7336 39.0047 58.6692 40.9953C58.6692 40.9953 61.3913 36.9516 57.0829 34.422C57.5606 35.3444 57.8865 36.3428 58.131 37.3828C58.389 38.4792 58.5556 39.627 58.7137 40.7834L58.5075 40.8115C58.3495 39.6625 58.1841 38.5233 57.9273 37.4281C57.6878 36.4077 57.3693 35.4302 56.9039 34.5286L56.9051 34.5298ZM65.7529 42.649C64.7344 42.578 63.7036 42.6711 62.6641 42.8524C61.5494 43.0471 60.4272 43.3436 59.3001 43.6486L59.2445 43.4502C60.379 43.1415 61.5099 42.8438 62.6271 42.649C63.6876 42.4641 64.7394 42.3697 65.7825 42.4445C61.7494 39.5033 59.0667 43.5739 59.0667 43.5739C62.4555 46.3865 65.1789 43.3669 65.7517 42.649H65.7529ZM63.5036 47.6862C62.4888 47.4277 61.4321 47.3309 60.3482 47.3236C59.1865 47.315 57.9989 47.4081 56.8051 47.5098L56.7866 47.2991C57.989 47.1962 59.1853 47.1031 60.3494 47.1116C61.4531 47.119 62.5333 47.2182 63.5727 47.4853C60.0507 43.776 56.5853 47.3909 56.5853 47.3909C59.4803 50.8515 62.7925 48.3048 63.5036 47.6862ZM55.3854 39.0855C54.678 39.7948 51.7448 43.1145 55.2545 46.3816C55.2545 46.3816 59.3396 42.9687 55.6039 39.0255C55.8224 40.1353 55.8582 41.2783 55.7952 42.4396C55.7298 43.6645 55.5533 44.9165 55.3656 46.1745L55.1422 46.1415C55.3274 44.892 55.5027 43.6486 55.5693 42.4261C55.6311 41.2868 55.5965 40.1672 55.3854 39.0843V39.0855ZM60.5617 52.1169C59.5322 51.6956 58.4334 51.4383 57.294 51.2693C56.0718 51.0904 54.8076 51.012 53.5348 50.9422L53.5472 50.718C54.8286 50.7866 56.1026 50.865 57.3261 51.0463C58.4877 51.2166 59.6099 51.48 60.6642 51.9148C57.5112 47.4889 53.32 50.7854 53.32 50.7854C55.8496 54.856 59.7186 52.6633 60.5617 52.1157V52.1169ZM56.8927 56.1864C55.9298 55.5628 54.862 55.0937 53.7373 54.709C52.5312 54.295 51.2621 53.9765 49.9831 53.6666L50.0387 53.4412C51.3263 53.7535 52.604 54.0745 53.8126 54.4885C54.9595 54.8817 56.0483 55.3619 57.0347 56.0014C54.6829 50.9128 49.7955 53.4669 49.7955 53.4669C51.5831 58.0777 55.9323 56.5832 56.8915 56.1876L56.8927 56.1864ZM52.1942 43.5714C51.3905 44.1705 48.0005 47.0296 50.9917 50.7707C50.9917 50.7707 55.5348 47.9863 52.4188 43.5445C52.4719 44.6739 52.3398 45.8095 52.1065 46.95C51.8608 48.1529 51.5028 49.3656 51.1325 50.5833L50.9164 50.5183C51.2843 49.3093 51.6399 48.1051 51.8843 46.9046C52.1127 45.7862 52.2435 44.6739 52.1929 43.5714H52.1942ZM51.9312 59.544C51.0522 58.8078 50.0523 58.21 48.9844 57.6894C47.8388 57.1296 46.6203 56.6592 45.3895 56.1937L45.4722 55.9769C46.7104 56.4448 47.9388 56.9201 49.0869 57.4799C50.1757 58.0116 51.1954 58.6204 52.0954 59.3774C50.3979 54.039 45.229 55.972 45.229 55.972C46.4265 60.7678 50.9288 59.8197 51.9312 59.544ZM48.3017 47.2329C47.3598 47.669 43.3155 49.8507 45.545 54.268C45.545 54.268 50.7411 52.406 48.5363 47.2525C48.3486 48.4065 47.9709 49.5285 47.4919 50.6335C46.9857 51.7997 46.3635 52.9524 45.7277 54.1063L45.5228 53.9949C46.1536 52.8483 46.7709 51.7041 47.2758 50.5404C47.7462 49.455 48.1165 48.3575 48.3017 47.2317V47.2329ZM46.6425 61.972C45.8932 61.1047 45.0018 60.3587 44.0315 59.6751C42.9908 58.9426 41.8624 58.2835 40.723 57.6294L40.8402 57.4285C41.9884 58.0863 43.1241 58.7503 44.1673 59.484C45.1561 60.181 46.066 60.9442 46.8326 61.8335C46.0141 56.2942 40.6007 57.3844 40.6007 57.3844C41.0118 62.3088 45.6092 62.0847 46.6425 61.9707V61.972ZM43.5105 49.5579C42.5451 49.9401 38.3811 51.8879 40.3501 56.4252C40.3501 56.4252 45.645 54.8621 43.7426 49.5922C43.4883 50.7339 43.0463 51.8328 42.5032 52.9095C41.9316 54.0439 41.2427 55.1598 40.5415 56.2758L40.3427 56.1533C41.039 55.0447 41.7217 53.9373 42.2933 52.8042C42.8254 51.7482 43.2587 50.6739 43.5093 49.5592L43.5105 49.5579ZM66.4986 37.5494C65.4196 37.9475 64.3542 38.3579 63.3444 38.8369C62.5765 39.2007 61.8419 39.6037 61.1617 40.0692L61.1593 40.0974C65.8344 41.4485 66.4578 37.8262 66.4986 37.5494ZM61.2197 39.7495C61.8568 39.3293 62.537 38.9606 63.2444 38.6262C64.1616 38.1925 65.127 37.8128 66.1085 37.4465C62.3296 36.6944 61.4271 38.8736 61.2197 39.7507V39.7495Z" fill="#F3B833"/>
<path fill-rule="evenodd" clip-rule="evenodd" d="M25.3434 9.54906C26.602 11.8392 27.4443 14.077 27.1776 16.1742H39.8622C39.5969 14.0853 40.4322 11.8558 41.6837 9.57387C41.8037 9.67039 41.9589 9.72968 42.1268 9.72968C42.5077 9.72968 42.8167 9.4291 42.8167 9.05682C42.8167 8.68455 42.5063 8.38259 42.1268 8.38259C41.7472 8.38259 41.4382 8.68455 41.4382 9.05682C41.4382 9.24434 41.5158 9.41255 41.6414 9.53389C39.5983 11.6283 38.1182 12.013 37.6893 9.19746C37.7246 9.2016 37.7613 9.20573 37.7979 9.20573C38.1775 9.20573 38.4865 8.90515 38.4865 8.53288C38.4865 8.1606 38.1789 7.85864 37.7979 7.85864C37.417 7.85864 37.108 8.16198 37.108 8.53288C37.108 8.81277 37.2829 9.05131 37.5285 9.15334C36.0582 11.3525 34.8321 10.972 33.8642 7.83796C34.3199 7.66285 34.6416 7.22991 34.6416 6.72113C34.6416 6.0593 34.0928 5.52295 33.4155 5.52295C32.7382 5.52295 32.188 6.0593 32.188 6.72113C32.188 7.29747 32.6028 7.77729 33.1573 7.89449C32.188 10.983 30.9633 11.3401 29.5001 9.13955C29.7315 9.032 29.8909 8.80174 29.8909 8.53288C29.8909 8.1606 29.5805 7.85864 29.201 7.85864C28.8214 7.85864 28.5124 8.16198 28.5124 8.53288C28.5124 8.90377 28.82 9.20573 29.201 9.20573C29.2518 9.20573 29.3026 9.20022 29.3505 9.18919C28.9216 12.0226 27.433 11.6297 25.3787 9.51321C25.493 9.39325 25.5621 9.23193 25.5621 9.05682C25.5621 8.68455 25.2531 8.38259 24.8721 8.38259C24.4912 8.38259 24.1836 8.68455 24.1836 9.05682C24.1836 9.4291 24.4926 9.72968 24.8721 9.72968C25.0542 9.72968 25.2192 9.66074 25.342 9.54906H25.3434ZM27.7703 15.4241H39.1849V15.7688H27.7703V15.4241Z" fill="#F3B833"/>
<path fill-rule="evenodd" clip-rule="evenodd" d="M22.4263 42.4066L21.0597 41.9007L20.7437 41.9215L21.0585 41.8995L22.3498 41.2061L22.4152 41.1718L22.4189 41.0983L22.4819 39.643L22.9991 40.1318L22.4275 42.4054L22.4263 42.4066ZM44.3662 42.8562L43.2416 43.7774L43.1021 44.0591L43.2404 43.7774L43.2811 42.3221L43.2836 42.2486L43.2218 42.2094L41.9824 41.4278L42.6675 41.2269L44.3662 42.8549V42.8562ZM46.1094 43.5348L45.8822 43.3168L45.3427 41.9632L45.3156 41.8958L45.3613 41.837L46.2563 40.683L44.7909 40.7725L44.7168 40.7774L44.6749 40.7173L43.8453 39.5156L43.4786 40.9268L43.4601 40.9979L43.3885 41.0187L42.6663 41.2294L44.365 42.8574L44.3712 42.8525L44.4292 42.8059H44.4304L44.4983 42.8304L45.8785 43.318L46.1057 43.536H46.1069L46.1094 43.5348ZM39.0294 44.9227L37.7035 45.5242L37.4949 45.7606L37.7023 45.5242L38.1208 44.1277L38.1418 44.0579L38.0924 44.004L37.0998 42.9309L37.8146 42.9137L39.0306 44.9227H39.0294ZM39.0911 45.0256V45.0379L39.0924 45.0256H39.0911ZM40.5355 46.0264L40.3726 45.7569L40.2047 44.3102L40.196 44.238L40.2553 44.1926L41.4207 43.3082L39.9812 43.0191L39.9084 43.0044L39.8837 42.9358L39.3961 41.5614L38.6739 42.8304L38.6381 42.8941H38.564L37.8109 42.915L39.0269 44.9239L39.0343 44.9203L39.1022 44.8896H39.1035L39.1627 44.9313L40.3689 45.7569L40.5318 46.0264H40.533H40.5355ZM33.3345 45.5475L31.8963 45.7876L31.6334 45.9627L31.8951 45.7876L32.6642 44.5466L32.7025 44.4842L32.6679 44.4192L31.9889 43.1269L32.684 43.2935L33.3345 45.5462V45.5475ZM33.3679 45.6626L33.3642 45.6736L33.3691 45.6626H33.3679ZM34.5024 47.0003L34.416 46.699L34.632 45.2596L34.6431 45.1873L34.7123 45.1591L36.069 44.6042L34.7542 43.955L34.6876 43.9219L34.6814 43.8496L34.5678 42.3968L33.5395 43.4368L33.4876 43.4895L33.416 43.4723L32.684 43.2972L33.3345 45.5499H33.342L33.4148 45.5364H33.416L33.4629 45.5928L34.4135 46.7002L34.5012 47.0015L34.5024 47.0003ZM33.3679 45.6626L33.3728 45.6504L33.3679 45.6614V45.6626ZM27.6718 44.6887L26.22 44.5515L25.92 44.6532L26.2188 44.5515L27.2854 43.5495L27.3385 43.4993L27.194 43.4564L27.3372 43.4993L27.3212 43.4282L27.0014 42.006L27.6286 42.3453L27.6693 44.6887H27.6718ZM28.4211 46.3927L28.4162 46.0791L29.0001 44.7439L29.0298 44.6777L29.1038 44.6679L30.5593 44.4805L29.4581 43.5164L29.4026 43.4674L29.4162 43.3952L29.6853 41.9632L28.4211 42.7043L28.357 42.741L28.2915 42.7055L27.6298 42.3478L27.6706 44.6912H27.678L27.752 44.6985L27.7829 44.7647L28.4113 46.0779L28.4174 46.3915L28.4211 46.3927ZM22.3967 42.523L22.388 42.5303L22.3979 42.523H22.3967ZM22.7053 44.2441L22.7818 43.9391L23.6942 42.7986L23.7398 42.741L23.8139 42.7508L25.2682 42.9431L24.4571 41.7292L24.4164 41.6679L24.4386 41.6667H24.4164L24.4485 41.6018L25.083 40.2874L23.6682 40.6781L23.5966 40.6977L23.5436 40.6475L22.9979 40.1318L22.4263 42.4054L22.4337 42.4078L22.5041 42.4335V42.436L22.5177 42.507L22.7831 43.9366L22.7065 44.2416L22.7053 44.2441ZM22.3967 42.523L22.4066 42.5144L22.3967 42.5217V42.523Z" fill="#F3B833"/>
<path d="M53.1196 28.9048V31.0054H52.957C52.7607 30.4312 52.4663 29.9946 52.0737 29.6958C51.6812 29.397 51.252 29.2476 50.7861 29.2476C50.3408 29.2476 49.9702 29.3735 49.6743 29.6255C49.3784 29.8745 49.1689 30.2231 49.0459 30.6714C48.9229 31.1196 48.8613 31.5796 48.8613 32.0513C48.8613 32.6226 48.9287 33.1235 49.0635 33.5542C49.1982 33.9849 49.415 34.3013 49.7139 34.5034C50.0156 34.7056 50.373 34.8066 50.7861 34.8066C50.9297 34.8066 51.0762 34.792 51.2256 34.7627C51.3779 34.7305 51.5332 34.6851 51.6914 34.6265V33.3872C51.6914 33.1528 51.6753 33.002 51.6431 32.9346C51.6108 32.8643 51.5435 32.8013 51.4409 32.7456C51.3413 32.6899 51.2197 32.6621 51.0762 32.6621H50.9224V32.4995H53.8184V32.6621C53.5986 32.6768 53.4448 32.7075 53.3569 32.7544C53.272 32.7983 53.2061 32.873 53.1592 32.9785C53.1328 33.0342 53.1196 33.1704 53.1196 33.3872V34.6265C52.7388 34.7964 52.3418 34.9238 51.9287 35.0088C51.5186 35.0967 51.0923 35.1406 50.6499 35.1406C50.0845 35.1406 49.6143 35.0645 49.2393 34.9121C48.8672 34.7568 48.5376 34.5547 48.2505 34.3057C47.9663 34.0537 47.7437 33.771 47.5825 33.4575C47.3774 33.0532 47.2749 32.6006 47.2749 32.0996C47.2749 31.2031 47.5898 30.4458 48.2197 29.8276C48.8496 29.2095 49.6421 28.9004 50.5972 28.9004C50.8931 28.9004 51.1597 28.9238 51.397 28.9707C51.5259 28.9941 51.7339 29.0615 52.021 29.1729C52.311 29.2812 52.4824 29.3354 52.5352 29.3354C52.6172 29.3354 52.6934 29.3062 52.7637 29.2476C52.834 29.186 52.8984 29.0718 52.957 28.9048H53.1196Z" fill="#2D2D2D"/>
<path d="M43.0977 29.041L46.0376 32.7368V30.1748C46.0376 29.8174 45.9863 29.5757 45.8838 29.4497C45.7432 29.2798 45.5073 29.1978 45.1763 29.2036V29.041H47.145V29.2036C46.8931 29.2358 46.7231 29.2783 46.6353 29.3311C46.5503 29.3809 46.4829 29.4644 46.4331 29.5815C46.3862 29.6958 46.3628 29.8936 46.3628 30.1748V35.1362H46.2134L42.1836 30.1748V33.9629C42.1836 34.3057 42.2612 34.5371 42.4165 34.6572C42.5747 34.7773 42.7549 34.8374 42.957 34.8374H43.0977V35H40.9839V34.8374C41.312 34.8345 41.5405 34.7671 41.6694 34.6353C41.7983 34.5034 41.8628 34.2793 41.8628 33.9629V29.7573L41.7354 29.5991C41.6094 29.4409 41.498 29.3369 41.4014 29.2871C41.3047 29.2373 41.1655 29.2095 40.9839 29.2036V29.041H43.0977Z" fill="#2D2D2D"/>
<path d="M41.0957 34.8374V35H37.98V34.8374H38.1777C38.3506 34.8374 38.4897 34.8066 38.5952 34.7451C38.6714 34.7041 38.73 34.6338 38.771 34.5342C38.8032 34.4639 38.8193 34.2793 38.8193 33.9805V30.0605C38.8193 29.7559 38.8032 29.5654 38.771 29.4893C38.7388 29.4131 38.6729 29.3472 38.5732 29.2915C38.4766 29.2329 38.3447 29.2036 38.1777 29.2036H37.98V29.041H41.0957V29.2036H40.8979C40.7251 29.2036 40.5859 29.2344 40.4805 29.2959C40.4043 29.3369 40.3442 29.4072 40.3003 29.5068C40.2681 29.5771 40.252 29.7617 40.252 30.0605V33.9805C40.252 34.2852 40.2681 34.4756 40.3003 34.5518C40.3354 34.6279 40.4014 34.6953 40.498 34.7539C40.5977 34.8096 40.731 34.8374 40.8979 34.8374H41.0957Z" fill="#2D2D2D"/>
<path d="M33.9868 29.041L36.9268 32.7368V30.1748C36.9268 29.8174 36.8755 29.5757 36.7729 29.4497C36.6323 29.2798 36.3965 29.1978 36.0654 29.2036V29.041H38.0342V29.2036C37.7822 29.2358 37.6123 29.2783 37.5244 29.3311C37.4395 29.3809 37.3721 29.4644 37.3223 29.5815C37.2754 29.6958 37.252 29.8936 37.252 30.1748V35.1362H37.1025L33.0728 30.1748V33.9629C33.0728 34.3057 33.1504 34.5371 33.3057 34.6572C33.4639 34.7773 33.644 34.8374 33.8462 34.8374H33.9868V35H31.873V34.8374C32.2012 34.8345 32.4297 34.7671 32.5586 34.6353C32.6875 34.5034 32.752 34.2793 32.752 33.9629V29.7573L32.6245 29.5991C32.4985 29.4409 32.3872 29.3369 32.2905 29.2871C32.1938 29.2373 32.0547 29.2095 31.873 29.2036V29.041H33.9868Z" fill="#2D2D2D"/>
<path d="M27.9331 29.041L30.873 32.7368V30.1748C30.873 29.8174 30.8218 29.5757 30.7192 29.4497C30.5786 29.2798 30.3428 29.1978 30.0117 29.2036V29.041H31.9805V29.2036C31.7285 29.2358 31.5586 29.2783 31.4707 29.3311C31.3857 29.3809 31.3184 29.4644 31.2686 29.5815C31.2217 29.6958 31.1982 29.8936 31.1982 30.1748V35.1362H31.0488L27.019 30.1748V33.9629C27.019 34.3057 27.0967 34.5371 27.252 34.6572C27.4102 34.7773 27.5903 34.8374 27.7925 34.8374H27.9331V35H25.8193V34.8374C26.1475 34.8345 26.376 34.7671 26.5049 34.6353C26.6338 34.5034 26.6982 34.2793 26.6982 33.9629V29.7573L26.5708 29.5991C26.4448 29.4409 26.3335 29.3369 26.2368 29.2871C26.1401 29.2373 26.001 29.2095 25.8193 29.2036V29.041H27.9331Z" fill="#2D2D2D"/>
<path d="M25.9307 34.8374V35H22.8149V34.8374H23.0127C23.1855 34.8374 23.3247 34.8066 23.4302 34.7451C23.5063 34.7041 23.5649 34.6338 23.606 34.5342C23.6382 34.4639 23.6543 34.2793 23.6543 33.9805V30.0605C23.6543 29.7559 23.6382 29.5654 23.606 29.4893C23.5737 29.4131 23.5078 29.3472 23.4082 29.2915C23.3115 29.2329 23.1797 29.2036 23.0127 29.2036H22.8149V29.041H25.9307V29.2036H25.7329C25.5601 29.2036 25.4209 29.2344 25.3154 29.2959C25.2393 29.3369 25.1792 29.4072 25.1353 29.5068C25.103 29.5771 25.0869 29.7617 25.0869 30.0605V33.9805C25.0869 34.2852 25.103 34.4756 25.1353 34.5518C25.1704 34.6279 25.2363 34.6953 25.333 34.7539C25.4326 34.8096 25.5659 34.8374 25.7329 34.8374H25.9307Z" fill="#2D2D2D"/>
<path d="M23.0059 29.041V29.2036C22.8945 29.2124 22.8008 29.2432 22.7246 29.2959C22.6484 29.3486 22.5811 29.4292 22.5225 29.5376C22.5049 29.5728 22.4126 29.7998 22.2456 30.2188L20.3779 35.1362H20.2065L18.73 31.2954L17.104 35.1362H16.9414L14.9814 30.2715C14.7822 29.7822 14.6431 29.4863 14.564 29.3838C14.4849 29.2812 14.3516 29.2212 14.1641 29.2036V29.041H16.748V29.2036C16.54 29.2095 16.4009 29.2417 16.3306 29.3003C16.2632 29.356 16.2295 29.4263 16.2295 29.5112C16.2295 29.6226 16.3013 29.8584 16.4448 30.2188L17.6138 33.1104L18.5498 30.8516L18.3037 30.2188C18.1689 29.873 18.0649 29.6431 17.9917 29.5288C17.9185 29.4116 17.8335 29.3281 17.7368 29.2783C17.6431 29.2285 17.5039 29.2036 17.3193 29.2036V29.041H20.2065V29.2036C20.0044 29.2065 19.8594 29.2227 19.7715 29.252C19.71 29.2725 19.6616 29.3076 19.6265 29.3574C19.5913 29.4043 19.5737 29.4585 19.5737 29.52C19.5737 29.5874 19.6396 29.7939 19.7715 30.1396L20.8569 32.9609L21.8281 30.4077C21.9307 30.144 21.9937 29.9639 22.0171 29.8672C22.0405 29.7705 22.0522 29.6812 22.0522 29.5991C22.0522 29.479 22.0112 29.3853 21.9292 29.3179C21.8472 29.2476 21.6904 29.2095 21.459 29.2036V29.041H23.0059Z" fill="#2D2D2D"/>
<path d="M43.2207 27V26.8374H43.4185C43.5913 26.8374 43.7231 26.811 43.814 26.7583C43.9077 26.7026 43.9766 26.6279 44.0205 26.5342C44.0469 26.4727 44.0601 26.2881 44.0601 25.9805V22.0605C44.0601 21.7559 44.0439 21.5654 44.0117 21.4893C43.9795 21.4131 43.9136 21.3472 43.814 21.2915C43.7173 21.2329 43.5854 21.2036 43.4185 21.2036H43.2207V21.041H45.8882C46.6001 21.041 47.1728 21.1377 47.6064 21.3311C48.1367 21.5684 48.5381 21.9272 48.8105 22.4077C49.0859 22.8882 49.2236 23.4316 49.2236 24.0381C49.2236 24.457 49.1562 24.8438 49.0215 25.1982C48.8867 25.5498 48.7124 25.8413 48.4985 26.0728C48.2847 26.3013 48.0371 26.4858 47.7559 26.6265C47.4775 26.7642 47.1362 26.8711 46.7319 26.9473C46.5532 26.9824 46.272 27 45.8882 27H43.2207ZM45.4927 21.3794V26.0288C45.4927 26.2749 45.5044 26.4258 45.5278 26.4814C45.5513 26.5371 45.5908 26.5796 45.6465 26.6089C45.7256 26.6528 45.8398 26.6748 45.9893 26.6748C46.4785 26.6748 46.852 26.5078 47.1099 26.1738C47.4614 25.7227 47.6372 25.0225 47.6372 24.0732C47.6372 23.3086 47.5171 22.6978 47.2769 22.2407C47.0864 21.8833 46.8418 21.6401 46.543 21.5112C46.332 21.4204 45.9819 21.3765 45.4927 21.3794Z" fill="#2D2D2D"/>
<path d="M39.439 24.2842V25.9541C39.439 26.2764 39.458 26.48 39.4961 26.5649C39.5371 26.647 39.6074 26.7129 39.707 26.7627C39.8066 26.8125 39.9927 26.8374 40.2651 26.8374V27H37.2153V26.8374C37.4907 26.8374 37.6768 26.8125 37.7734 26.7627C37.873 26.71 37.9419 26.6426 37.98 26.5605C38.021 26.4785 38.0415 26.2764 38.0415 25.9541V22.0869C38.0415 21.7646 38.021 21.5625 37.98 21.4805C37.9419 21.3955 37.873 21.3281 37.7734 21.2783C37.6738 21.2285 37.4878 21.2036 37.2153 21.2036V21.041H39.9839C40.7046 21.041 41.2319 21.0908 41.5659 21.1904C41.8999 21.29 42.1724 21.4746 42.3833 21.7441C42.5942 22.0107 42.6997 22.3242 42.6997 22.6846C42.6997 23.124 42.5415 23.4873 42.2251 23.7744C42.0229 23.9561 41.7402 24.0923 41.377 24.1831L42.8096 26.2002C42.9971 26.4609 43.1304 26.6235 43.2095 26.688C43.3296 26.7788 43.4688 26.8286 43.627 26.8374V27H41.7505L39.8301 24.2842H39.439ZM39.439 21.3618V23.9722H39.6895C40.0967 23.9722 40.4014 23.9355 40.6035 23.8623C40.8057 23.7861 40.9639 23.6514 41.0781 23.458C41.1953 23.2617 41.2539 23.0068 41.2539 22.6934C41.2539 22.2393 41.147 21.9038 40.9331 21.687C40.7222 21.4702 40.3809 21.3618 39.9092 21.3618H39.439Z" fill="#2D2D2D"/>
<path d="M34.7383 25.3037H32.6333L32.3828 25.8838C32.3008 26.0771 32.2598 26.2368 32.2598 26.3628C32.2598 26.5298 32.3271 26.6528 32.4619 26.7319C32.541 26.7788 32.7358 26.814 33.0464 26.8374V27H31.0645V26.8374C31.2783 26.8052 31.4541 26.7173 31.5918 26.5737C31.7295 26.4272 31.8994 26.127 32.1016 25.6729L34.2329 20.918H34.3164L36.4653 25.8047C36.6704 26.2676 36.8389 26.5591 36.9707 26.6792C37.0703 26.77 37.2109 26.8228 37.3926 26.8374V27H34.5098V26.8374H34.6284C34.8599 26.8374 35.0225 26.8052 35.1162 26.7407C35.1807 26.6938 35.2129 26.6265 35.2129 26.5386C35.2129 26.4858 35.2041 26.4316 35.1865 26.376C35.1807 26.3496 35.1367 26.2397 35.0547 26.0464L34.7383 25.3037ZM34.5889 24.9785L33.7012 22.9263L32.7871 24.9785H34.5889Z" fill="#2D2D2D"/>
<path d="M32.3672 21.041V21.2036C32.2559 21.2124 32.1621 21.2432 32.0859 21.2959C32.0098 21.3486 31.9424 21.4292 31.8838 21.5376C31.8662 21.5728 31.7739 21.7998 31.6069 22.2188L29.7393 27.1362H29.5679L28.0913 23.2954L26.4653 27.1362H26.3027L24.3428 22.2715C24.1436 21.7822 24.0044 21.4863 23.9253 21.3838C23.8462 21.2812 23.7129 21.2212 23.5254 21.2036V21.041H26.1094V21.2036C25.9014 21.2095 25.7622 21.2417 25.6919 21.3003C25.6245 21.356 25.5908 21.4263 25.5908 21.5112C25.5908 21.6226 25.6626 21.8584 25.8062 22.2188L26.9751 25.1104L27.9111 22.8516L27.665 22.2188C27.5303 21.873 27.4263 21.6431 27.353 21.5288C27.2798 21.4116 27.1948 21.3281 27.0981 21.2783C27.0044 21.2285 26.8652 21.2036 26.6807 21.2036V21.041H29.5679V21.2036C29.3657 21.2065 29.2207 21.2227 29.1328 21.252C29.0713 21.2725 29.0229 21.3076 28.9878 21.3574C28.9526 21.4043 28.9351 21.4585 28.9351 21.52C28.9351 21.5874 29.001 21.7939 29.1328 22.1396L30.2183 24.9609L31.1895 22.4077C31.292 22.144 31.355 21.9639 31.3784 21.8672C31.4019 21.7705 31.4136 21.6812 31.4136 21.5991C31.4136 21.479 31.3726 21.3853 31.2905 21.3179C31.2085 21.2476 31.0518 21.2095 30.8203 21.2036V21.041H32.3672Z" fill="#2D2D2D"/>
<path d="M22.1382 25.3037H20.0332L19.7827 25.8838C19.7007 26.0771 19.6597 26.2368 19.6597 26.3628C19.6597 26.5298 19.7271 26.6528 19.8618 26.7319C19.9409 26.7788 20.1357 26.814 20.4463 26.8374V27H18.4644V26.8374C18.6782 26.8052 18.854 26.7173 18.9917 26.5737C19.1294 26.4272 19.2993 26.127 19.5015 25.6729L21.6328 20.918H21.7163L23.8652 25.8047C24.0703 26.2676 24.2388 26.5591 24.3706 26.6792C24.4702 26.77 24.6108 26.8228 24.7925 26.8374V27H21.9097V26.8374H22.0283C22.2598 26.8374 22.4224 26.8052 22.5161 26.7407C22.5806 26.6938 22.6128 26.6265 22.6128 26.5386C22.6128 26.4858 22.604 26.4316 22.5864 26.376C22.5806 26.3496 22.5366 26.2397 22.4546 26.0464L22.1382 25.3037ZM21.9888 24.9785L21.1011 22.9263L20.187 24.9785H21.9888Z" fill="#2D2D2D"/>
</g>
<defs>
<clipPath id="clip0_1011_332">
<rect width="67" height="64.302" fill="white"/>
</clipPath>
</defs>
</svg>
